<svg width="27" height="27" viewBox="0 0 27 27" fill="none" xmlns="http://www.w3.org/2000/svg">
<path d="M26.7204 25.4776L18.6421 17.3993L18.5179 17.5236C20.1335 15.6593 21.1277 13.1738 21.1277 10.5639C21.1277 4.72268 16.4051 0 10.5638 0C4.72261 0 0 4.72268 0 10.5639C0 16.405 4.72267 21.1277 10.5638 21.1277C13.298 21.1277 15.6593 20.1335 17.5236 18.5178L17.3993 18.6421L25.4775 26.7203C25.8504 27.0931 26.3475 27.0931 26.7204 26.7203C27.0932 26.3475 27.0932 25.8504 26.7204 25.4776ZM10.5638 19.885C5.46836 19.885 1.24281 15.6594 1.24281 10.5639C1.24281 5.4683 5.46836 1.24274 10.5639 1.24274C15.6594 1.24281 19.8849 5.46836 19.8849 10.5639C19.8849 15.6594 15.6594 19.885 10.5638 19.885Z" fill="yellow"/>
<path d="M11.1867 4.9707H9.9439V9.94194H4.97266V11.1848H9.9439V16.156H11.1867V11.1848H16.1579V9.94194H11.1867V4.9707Z" fill="yellow"/>
</svg>
